<svg width="34" height="12" viewBox="0 0 34 12" fill="none" xmlns="http://www.w3.org/2000/svg">
<path d="M8 1C8 0.734784 8.10536 0.48043 8.29289 0.292893C8.48043 0.105357 8.73478 0 9 0C9.26522 0 9.51957 0.105357 9.70711 0.292893C9.89464 0.48043 10 0.734784 10 1V11C10 11.2652 9.89464 11.5196 9.70711 11.7071C9.51957 11.8946 9.26522 12 9 12C8.73478 12 8.48043 11.8946 8.29289 11.7071C8.10536 11.5196 8 11.2652 8 11V1Z" fill="#050111"/>
<path d="M0 9C0 8.73478 0.105357 8.48043 0.292893 8.29289C0.48043 8.10536 0.734784 8 1 8C1.26522 8 1.51957 8.10536 1.70711 8.29289C1.89464 8.48043 2 8.73478 2 9V11C2 11.2652 1.89464 11.5196 1.70711 11.7071C1.51957 11.8946 1.26522 12 1 12C0.734784 12 0.48043 11.8946 0.292893 11.7071C0.105357 11.5196 0 11.2652 0 11V9Z" fill="#050111"/>
<path d="M5 4C4.73478 4 4.48043 4.10536 4.29289 4.29289C4.10536 4.48043 4 4.73478 4 5V11C4 11.2652 4.10536 11.5196 4.29289 11.7071C4.48043 11.8946 4.73478 12 5 12C5.26522 12 5.51957 11.8946 5.70711 11.7071C5.89464 11.5196 6 11.2652 6 11V5C6 4.73478 5.89464 4.48043 5.70711 4.29289C5.51957 4.10536 5.26522 4 5 4Z" fill="#050111"/>
<path d="M18 9C17.7348 9 17.4804 8.89464 17.2929 8.70711C17.1054 8.51957 17 8.26522 17 8V4C17 3.73478 17.1054 3.48043 17.2929 3.29289C17.4804 3.10536 17.7348 3 18 3H24V9H18Z" fill="#050111"/>
<path fill-rule="evenodd" clip-rule="evenodd" d="M30 0H17C16.2044 0 15.4413 0.316071 14.8787 0.87868C14.3161 1.44129 14 2.20435 14 3V9C14 9.79565 14.3161 10.5587 14.8787 11.1213C15.4413 11.6839 16.2044 12 17 12H30C30.7956 12 31.5587 11.6839 32.1213 11.1213C32.6839 10.5587 33 9.79565 33 9C33.2652 9 33.5196 8.89464 33.7071 8.70711C33.8946 8.51957 34 8.26522 34 8V4C34 3.73478 33.8946 3.48043 33.7071 3.29289C33.5196 3.10536 33.2652 3 33 3C33 2.20435 32.6839 1.44129 32.1213 0.87868C31.5587 0.316071 30.7956 0 30 0ZM30 2H17C16.7348 2 16.4804 2.10536 16.2929 2.29289C16.1054 2.48043 16 2.73478 16 3V9C16 9.26522 16.1054 9.51957 16.2929 9.70711C16.4804 9.89464 16.7348 10 17 10H30C30.2652 10 30.5196 9.89464 30.7071 9.70711C30.8946 9.51957 31 9.26522 31 9V3C31 2.73478 30.8946 2.48043 30.7071 2.29289C30.5196 2.10536 30.2652 2 30 2Z" fill="#050111"/>
</svg>
