<svg width="13" height="12" viewBox="0 0 13 12" fill="none" xmlns="http://www.w3.org/2000/svg">
<path d="M6.23 0C7.37309 0.00106982 8.50447 0.230358 9.55778 0.674419C10.6111 1.11848 11.5652 1.76838 12.364 2.586L8.243 6.829C7.96987 6.55768 7.64469 6.34441 7.28701 6.202C6.92933 6.0596 6.54654 5.99101 6.16167 6.00035C5.7768 6.00969 5.3978 6.09677 5.04745 6.25636C4.6971 6.41595 4.38265 6.64475 4.123 6.929L0 2.687C0.8017 1.83973 1.76751 1.16455 2.83858 0.702595C3.90965 0.240642 5.06356 0.00158916 6.23 0Z" fill="#050111"/>
<path d="M6.22803 12C6.82137 12 7.40139 11.8241 7.89474 11.4944C8.38809 11.1648 8.7726 10.6962 8.99967 10.1481C9.22673 9.59987 9.28614 8.99667 9.17038 8.41473C9.05463 7.83279 8.7689 7.29824 8.34935 6.87868C7.92979 6.45912 7.39524 6.1734 6.8133 6.05765C6.23136 5.94189 5.62816 6.0013 5.07998 6.22836C4.5318 6.45543 4.06326 6.83994 3.73362 7.33329C3.40397 7.82664 3.22803 8.40666 3.22803 9C3.22803 9.79565 3.5441 10.5587 4.10671 11.1213C4.66932 11.6839 5.43238 12 6.22803 12Z" fill="#050111"/>
</svg>
