<svg width="18" height="21" viewBox="0 0 18 21" fill="none" xmlns="http://www.w3.org/2000/svg">
<path d="M14.9591 12.139L15.8496 9.80625C15.8828 9.71582 15.8938 9.61874 15.8817 9.52316C15.8695 9.42759 15.8346 9.33634 15.7798 9.2571C15.725 9.17786 15.652 9.11295 15.5668 9.06785C15.4817 9.02275 15.387 8.99877 15.2907 8.99795H13.1111C13.5396 8.27554 13.7678 7.452 13.7722 6.6121V6.60108C15.2336 6.31062 16.158 5.88894 16.158 5.41918C16.158 4.92338 15.1404 4.48367 13.5458 4.1892C13.23 3.07848 12.7178 2.03331 12.0334 1.10323C11.8622 0.88877 11.6228 0.739335 11.355 0.679752C11.0871 0.62017 10.807 0.654029 10.561 0.775701L9.53238 1.28953C9.36653 1.37271 9.18355 1.41602 8.99802 1.41602C8.81248 1.41602 8.6295 1.37271 8.46366 1.28953L7.438 0.775701C7.19206 0.654029 6.91189 0.62017 6.64405 0.679752C6.3762 0.739335 6.1368 0.88877 5.96563 1.10323C5.2841 2.03448 4.77336 3.07936 4.4572 4.1892C2.86564 4.48367 1.85301 4.92338 1.85301 5.41918C1.85301 5.88894 2.7775 6.30961 4.23885 6.60108V6.6121C4.24387 7.45218 4.47275 8.27574 4.90192 8.99795H2.74945C2.6512 8.99912 2.55473 9.02436 2.46849 9.07147C2.38226 9.11858 2.30889 9.18612 2.25482 9.26817C2.20074 9.35022 2.16762 9.44427 2.15833 9.5421C2.14905 9.63992 2.1639 9.73853 2.20157 9.82928L3.16312 12.0729C2.40195 12.5087 1.76901 13.1374 1.32802 13.8956C0.887029 14.6538 0.653547 15.5147 0.651073 16.3919L0.651073 18.0625C0.651603 18.5052 0.827687 18.9296 1.1407 19.2426C1.45371 19.5556 1.8781 19.7317 2.32076 19.7322H15.6753C15.8948 19.7325 16.1122 19.6895 16.3152 19.6058C16.5181 19.522 16.7025 19.3991 16.8579 19.244C17.0133 19.089 17.1367 18.9048 17.221 18.7021C17.3052 18.4994 17.3487 18.2821 17.349 18.0625V16.3919C17.3475 15.5379 17.1272 14.6986 16.709 13.954C16.2908 13.2095 15.6886 12.5846 14.9601 12.139H14.9591ZM7.21064 18.5383L5.65914 11.3828L7.50812 12.5757L8.40356 14.0661L7.21064 18.5383ZM10.7884 18.5383L9.59648 14.0661L10.4909 12.5757L12.3399 11.3828L10.7884 18.5383ZM12.3429 7.41339C12.2482 7.8743 12.0364 8.30305 11.7279 8.6584C11.3513 9.00496 9.93903 9.49374 9.34207 7.7269C9.31529 7.65887 9.26867 7.60046 9.20827 7.55926C9.14787 7.51806 9.07648 7.49597 9.00337 7.49587C8.93025 7.49576 8.8588 7.51764 8.79827 7.55866C8.73775 7.59968 8.69096 7.65794 8.66398 7.7259C8.02996 9.59691 6.57662 8.93384 6.27814 8.6574C5.96698 8.30372 5.7536 7.87489 5.65914 7.41339C5.62909 7.32024 5.42476 7.20105 5.42476 7.19704V6.7964C6.61168 6.94298 7.80659 7.01524 9.00252 7.01275C10.1985 7.0171 11.3935 6.94484 12.5803 6.7964V7.19704C12.5803 7.19704 12.3699 7.31624 12.3429 7.41339Z" stroke="white" stroke-width="1.3"/>
</svg>
