<svg width="14" height="18" viewBox="0 0 14 18" fill="none" xmlns="http://www.w3.org/2000/svg">
<path fill-rule="evenodd" clip-rule="evenodd" d="M12 4C12 6.209 9.761 8 7 8C4.239 8 2 6.209 2 4C2 1.791 4.239 0 7 0C9.761 0 12 1.791 12 4ZM9.5 4C9.42669 4.59368 9.12418 5.13517 8.65708 5.50885C8.18998 5.88253 7.59529 6.05879 7 6C6.40471 6.05879 5.81002 5.88253 5.34292 5.50885C4.87582 5.13517 4.57331 4.59368 4.5 4C4.57331 3.40632 4.87582 2.86483 5.34292 2.49115C5.81002 2.11747 6.40471 1.94121 7 2C7.59529 1.94121 8.18998 2.11747 8.65708 2.49115C9.12418 2.86483 9.42669 3.40632 9.5 4Z" fill="white"/>
<path d="M11.667 12C11.6432 11.7133 11.5074 11.4475 11.2889 11.2603C11.0705 11.0731 10.787 10.9795 10.5 11H3.5C3.21302 10.9795 2.92954 11.0731 2.71107 11.2603C2.4926 11.4475 2.35675 11.7133 2.333 12V18H0V12C0.0712589 11.14 0.47866 10.3428 1.13386 9.78116C1.78905 9.21957 2.63922 8.93889 3.5 9H10.5C11.3608 8.93889 12.2109 9.21957 12.8661 9.78116C13.5213 10.3428 13.9287 11.14 14 12V18H11.667V12Z" fill="white"/>
</svg>
