<svg width="19" height="19" viewBox="0 0 19 19" fill="none" xmlns="http://www.w3.org/2000/svg">
<path d="M17.3837 18.9989L11.9579 13.5858V12.7287L11.6648 12.425C10.2784 13.6148 8.4849 14.2212 6.6609 14.1169C4.8369 14.0126 3.12425 13.2057 1.8825 11.8656C0.640753 10.5255 -0.0335046 8.75636 0.00128211 6.92972C0.0360688 5.10307 0.777194 3.36093 2.06906 2.06906C3.36093 0.777195 5.10307 0.0360688 6.92972 0.00128211C8.75636 -0.0335046 10.5255 0.640753 11.8656 1.8825C13.2057 3.12425 14.0126 4.8369 14.1169 6.6609C14.2212 8.4849 13.6148 10.2784 12.425 11.6648L12.7287 11.9579H13.5858L19 17.3826L17.3847 18.9989H17.3837ZM7.07411 2.19031C6.1084 2.19031 5.16437 2.47668 4.3614 3.0132C3.55844 3.54973 2.93261 4.31231 2.56304 5.20451C2.19348 6.09672 2.09678 7.07848 2.28519 8.02564C2.47359 8.9728 2.93862 9.84282 3.62149 10.5257C4.30435 11.2085 5.17438 11.6736 6.12154 11.862C7.0687 12.0504 8.05045 11.9537 8.94266 11.5841C9.83487 11.2146 10.5974 10.5887 11.134 9.78577C11.6705 8.9828 11.9569 8.03878 11.9569 7.07306C11.9552 5.77859 11.4402 4.53761 10.5249 3.62228C9.60956 2.70695 8.36858 2.19198 7.07411 2.19031Z" fill="white"/>
</svg>
