<svg width="303" height="53" viewBox="0 0 303 53" fill="none" xmlns="http://www.w3.org/2000/svg">
<path d="M291 52H12C9.06181 52 6.29946 50.8558 4.22181 48.7782C2.14419 46.7005 1 43.9382 1 41V12C1 9.06181 2.14419 6.29946 4.22181 4.22181C6.29946 2.14419 9.06181 1 12 1H291C293.938 1 296.701 2.14419 298.778 4.22181C300.856 6.29946 302 9.06181 302 12V41C302 43.9382 300.856 46.7005 298.778 48.7782C296.701 50.8558 293.938 52 291 52Z" fill="white"/>
<path d="M12 2C6.48599 2 2 6.486 2 12V41C2 46.514 6.48599 51 12 51H291C296.514 51 301 46.514 301 41V12C301 6.486 296.514 2 291 2H12ZM12 0H291C297.627 0 303 5.37258 303 12V41C303 47.6274 297.627 53 291 53H12C5.37259 53 0 47.6274 0 41V12C0 5.37258 5.37259 0 12 0Z" fill="#F7BB0E"/>
</svg>
